%FSLAX34Y34*%
%MOMM*%
%LNCOPPER_TOP*%
G71*
G01*
%ADD10C, 2.00*%
%ADD11C, 1.60*%
%ADD12R, 1.00X3.42*%
%ADD13R, 5.00X4.00*%
%ADD14C, 1.00*%
%ADD15C, 0.30*%
%ADD16C, 1.50*%
%ADD17C, 2.00*%
%ADD18C, 1.00*%
%ADD19C, 2.00*%
%ADD20C, 2.00*%
%ADD21C, 1.80*%
%LPD*%
X206375Y977900D02*
G54D10*
D03*
X206375Y952500D02*
G54D10*
D03*
X180975Y977900D02*
G54D10*
D03*
X180975Y952500D02*
G54D10*
D03*
X155575Y977900D02*
G54D10*
D03*
G36*
X165575Y962500D02*
X165575Y942500D01*
X145575Y942500D01*
X145575Y962500D01*
X165575Y962500D01*
G37*
G36*
X343375Y987900D02*
X343375Y967900D01*
X323375Y967900D01*
X323375Y987900D01*
X343375Y987900D01*
G37*
X333375Y952500D02*
G54D10*
D03*
X307975Y977900D02*
G54D10*
D03*
X307975Y952500D02*
G54D10*
D03*
X282575Y977900D02*
G54D10*
D03*
X282575Y952500D02*
G54D10*
D03*
X257175Y977900D02*
G54D10*
D03*
X257175Y952500D02*
G54D10*
D03*
X231775Y977900D02*
G54D10*
D03*
X231775Y952500D02*
G54D10*
D03*
X460375Y977900D02*
G54D10*
D03*
X460375Y952500D02*
G54D10*
D03*
X434975Y977900D02*
G54D10*
D03*
X434975Y952500D02*
G54D10*
D03*
X409575Y977900D02*
G54D10*
D03*
X409575Y952500D02*
G54D10*
D03*
X384175Y977900D02*
G54D10*
D03*
X384175Y952500D02*
G54D10*
D03*
G36*
X368775Y987900D02*
X368775Y967900D01*
X348775Y967900D01*
X348775Y987900D01*
X368775Y987900D01*
G37*
G36*
X368775Y962500D02*
X368775Y942500D01*
X348775Y942500D01*
X348775Y962500D01*
X368775Y962500D01*
G37*
X587375Y977900D02*
G54D10*
D03*
X587375Y952500D02*
G54D10*
D03*
X561975Y977900D02*
G54D10*
D03*
X561975Y952500D02*
G54D10*
D03*
X536575Y977900D02*
G54D10*
D03*
X536575Y952500D02*
G54D10*
D03*
X511175Y977900D02*
G54D10*
D03*
X511175Y952500D02*
G54D10*
D03*
X485775Y977900D02*
G54D10*
D03*
X485775Y952500D02*
G54D10*
D03*
G36*
X724375Y987900D02*
X724375Y967900D01*
X704375Y967900D01*
X704375Y987900D01*
X724375Y987900D01*
G37*
X714375Y952500D02*
G54D10*
D03*
X688975Y977900D02*
G54D10*
D03*
X688975Y952500D02*
G54D10*
D03*
X663575Y977900D02*
G54D10*
D03*
X663575Y952500D02*
G54D10*
D03*
X638175Y977900D02*
G54D10*
D03*
X638175Y952500D02*
G54D10*
D03*
X612775Y977900D02*
G54D10*
D03*
X612775Y952500D02*
G54D10*
D03*
X120650Y180975D02*
G54D11*
D03*
X120650Y155575D02*
G54D11*
D03*
X120650Y130175D02*
G54D11*
D03*
X120650Y104775D02*
G54D11*
D03*
X196850Y180975D02*
G54D11*
D03*
X196850Y155575D02*
G54D11*
D03*
X196850Y130175D02*
G54D11*
D03*
X196850Y104775D02*
G54D11*
D03*
X120650Y79375D02*
G54D11*
D03*
X196850Y79375D02*
G54D11*
D03*
X120650Y53975D02*
G54D11*
D03*
X120650Y28575D02*
G54D11*
D03*
X196850Y53975D02*
G54D11*
D03*
X196850Y28575D02*
G54D11*
D03*
X400050Y180975D02*
G54D11*
D03*
X400050Y155575D02*
G54D11*
D03*
X400050Y130175D02*
G54D11*
D03*
X400050Y104775D02*
G54D11*
D03*
X476250Y180975D02*
G54D11*
D03*
X476250Y155575D02*
G54D11*
D03*
X476250Y130175D02*
G54D11*
D03*
X476250Y104775D02*
G54D11*
D03*
X400050Y79375D02*
G54D11*
D03*
X476250Y79375D02*
G54D11*
D03*
X400050Y53975D02*
G54D11*
D03*
X400050Y28575D02*
G54D11*
D03*
X476250Y53975D02*
G54D11*
D03*
X476250Y28575D02*
G54D11*
D03*
X539750Y180975D02*
G54D11*
D03*
X539750Y155575D02*
G54D11*
D03*
X539750Y130175D02*
G54D11*
D03*
X539750Y104775D02*
G54D11*
D03*
X615950Y180975D02*
G54D11*
D03*
X615950Y155575D02*
G54D11*
D03*
X615950Y130175D02*
G54D11*
D03*
X615950Y104775D02*
G54D11*
D03*
X539750Y79375D02*
G54D11*
D03*
X615950Y79375D02*
G54D11*
D03*
X539750Y53975D02*
G54D11*
D03*
X539750Y28575D02*
G54D11*
D03*
X615950Y53975D02*
G54D11*
D03*
X615950Y28575D02*
G54D11*
D03*
X679450Y180975D02*
G54D11*
D03*
X679450Y155575D02*
G54D11*
D03*
X679450Y130175D02*
G54D11*
D03*
X679450Y104775D02*
G54D11*
D03*
X755650Y180975D02*
G54D11*
D03*
X755650Y155575D02*
G54D11*
D03*
X755650Y130175D02*
G54D11*
D03*
X755650Y104775D02*
G54D11*
D03*
X679450Y79375D02*
G54D11*
D03*
X755650Y79375D02*
G54D11*
D03*
X679450Y53975D02*
G54D11*
D03*
X679450Y28575D02*
G54D11*
D03*
X755650Y53975D02*
G54D11*
D03*
X755650Y28575D02*
G54D11*
D03*
X198350Y248375D02*
G54D12*
D03*
X213350Y248375D02*
G54D12*
D03*
X228350Y248375D02*
G54D12*
D03*
X243350Y248375D02*
G54D12*
D03*
X258350Y248375D02*
G54D12*
D03*
X273350Y248375D02*
G54D12*
D03*
X288350Y248375D02*
G54D12*
D03*
X303350Y248375D02*
G54D12*
D03*
X318350Y248375D02*
G54D12*
D03*
X333350Y248375D02*
G54D12*
D03*
X348350Y248375D02*
G54D12*
D03*
X363350Y248375D02*
G54D12*
D03*
X378350Y248375D02*
G54D12*
D03*
X393350Y248375D02*
G54D12*
D03*
X408350Y248375D02*
G54D12*
D03*
X423350Y248375D02*
G54D12*
D03*
X438350Y248375D02*
G54D12*
D03*
X453350Y248375D02*
G54D12*
D03*
X468350Y248375D02*
G54D12*
D03*
X483350Y248375D02*
G54D12*
D03*
X498350Y248375D02*
G54D12*
D03*
X513350Y248375D02*
G54D12*
D03*
X528350Y248375D02*
G54D12*
D03*
X543350Y248375D02*
G54D12*
D03*
X558350Y248375D02*
G54D12*
D03*
X573350Y248375D02*
G54D12*
D03*
X588350Y248375D02*
G54D12*
D03*
X603350Y248375D02*
G54D12*
D03*
X618350Y248375D02*
G54D12*
D03*
X633350Y248375D02*
G54D12*
D03*
X648350Y248375D02*
G54D12*
D03*
X663350Y248375D02*
G54D12*
D03*
X303350Y453375D02*
G54D13*
D03*
X558350Y453375D02*
G54D13*
D03*
G54D14*
X434975Y952500D02*
X434975Y923925D01*
X476250Y882650D01*
X603250Y882650D01*
X649922Y831888D01*
X649980Y393774D01*
X618041Y358212D01*
X618169Y256879D01*
G54D15*
X409575Y977900D02*
X422275Y965200D01*
X422275Y920750D01*
X473075Y869950D01*
X596900Y869950D01*
X638175Y828675D01*
X638175Y406400D01*
X603250Y371475D01*
X603250Y257175D01*
G54D14*
X409575Y952500D02*
X409575Y917575D01*
X473075Y854075D01*
X581025Y854075D01*
X620252Y815857D01*
X622300Y409575D01*
X590550Y381000D01*
X590550Y304800D01*
X588236Y278488D01*
X588300Y256925D01*
G54D15*
X384175Y977900D02*
X396875Y965200D01*
X396875Y904875D01*
X473075Y835025D01*
X577850Y835025D01*
X606653Y806803D01*
X612775Y415925D01*
X580075Y388300D01*
X580175Y304250D01*
X573699Y288378D01*
X573690Y257619D01*
G54D15*
X384175Y952500D02*
X384175Y904875D01*
X473075Y825500D01*
X574675Y825500D01*
X600075Y800100D01*
X606425Y422275D01*
X573800Y394575D01*
X573350Y307900D01*
X558350Y276150D01*
X558800Y257175D01*
G54D14*
X333375Y952500D02*
X333375Y911225D01*
X495300Y768350D01*
X495300Y431800D01*
X540098Y384502D01*
X539750Y285750D01*
X542925Y276225D01*
X543376Y257744D01*
G54D15*
X307975Y977900D02*
X320675Y965200D01*
X320675Y898525D01*
X476250Y762000D01*
X476250Y431800D01*
X528396Y379482D01*
X528396Y257560D01*
G54D14*
X307975Y952500D02*
X307579Y891922D01*
X463550Y752475D01*
X463550Y425450D01*
X514350Y374650D01*
X513213Y257858D01*
G54D15*
X349250Y257175D02*
X349250Y353775D01*
X222250Y474425D01*
X222250Y762000D01*
X222250Y762000D02*
G54D16*
D03*
G54D15*
X336550Y257175D02*
X336550Y346075D01*
X196850Y485775D01*
X196850Y762000D01*
X196850Y762000D02*
G54D16*
D03*
X285750Y360675D02*
G54D16*
D03*
X273050Y378775D02*
G54D16*
D03*
G54D15*
X288350Y248375D02*
X288350Y291375D01*
X281600Y301125D01*
X281600Y349125D01*
X285750Y360675D01*
G54D15*
X273050Y257175D02*
X273050Y378775D01*
X393700Y365125D02*
G54D16*
D03*
G54D14*
X393350Y258375D02*
X393350Y364775D01*
X393700Y365125D01*
G54D14*
X408350Y257025D02*
X408350Y388575D01*
X403350Y401475D01*
X403350Y401475D02*
G54D16*
D03*
G54D14*
X423350Y255675D02*
X425450Y403225D01*
X413350Y423375D01*
X410650Y448375D01*
X410650Y448375D02*
G54D16*
D03*
X430150Y433075D02*
G54D16*
D03*
G54D14*
X438378Y257174D02*
X438150Y425075D01*
X430150Y433075D01*
X455100Y400750D02*
G54D16*
D03*
G54D14*
X468350Y248375D02*
X468377Y359154D01*
X455163Y359152D01*
X455100Y400750D01*
X480500Y378525D02*
G54D16*
D03*
G54D14*
X483396Y257175D02*
X482600Y376425D01*
X480500Y378525D01*
X318350Y343375D02*
G54D16*
D03*
X303350Y308375D02*
G54D16*
D03*
G54D14*
X303350Y257025D02*
X303350Y308375D01*
G54D14*
X318350Y257025D02*
X318350Y343375D01*
X342900Y403225D02*
G54D16*
D03*
X453350Y306550D02*
G54D16*
D03*
G54D14*
X453350Y257025D02*
X453350Y306550D01*
X498350Y347825D02*
G54D16*
D03*
G54D14*
X498350Y347825D02*
X498350Y258375D01*
G54D17*
X755650Y79375D02*
X742950Y79375D01*
X688975Y104775D01*
X679450Y104775D01*
G54D17*
X587375Y952500D02*
X587375Y909075D01*
X755650Y909075D01*
X755650Y180975D01*
G54D14*
X400050Y53975D02*
X381000Y73025D01*
X381000Y212725D01*
X258655Y212577D01*
X258655Y237829D01*
X485775Y806450D02*
G54D16*
D03*
X520575Y449425D02*
G54D16*
D03*
G54D14*
X520575Y449425D02*
X517400Y774825D01*
X485775Y806450D01*
G54D14*
X679450Y130175D02*
X701675Y130175D01*
X701650Y193775D01*
X717550Y217488D01*
X717550Y282575D01*
X716661Y845665D01*
X716661Y845665D02*
G54D16*
D03*
X685320Y199680D02*
G54D18*
D03*
G54D14*
X476250Y155575D02*
X501650Y155575D01*
X501650Y212725D01*
X606425Y212725D01*
X638175Y200025D01*
X685324Y199679D01*
G54D17*
X120650Y28575D02*
X120650Y3175D01*
X679450Y3175D01*
G54D17*
X400050Y28575D02*
X400050Y7938D01*
G54D17*
X539750Y28575D02*
X539750Y3175D01*
X713900Y882100D02*
G54D16*
D03*
G54D14*
X713900Y882100D02*
X671433Y834475D01*
X671075Y391200D01*
X648496Y362964D01*
X648312Y257437D01*
X307975Y815975D02*
G54D16*
D03*
X177800Y815975D02*
G54D16*
D03*
G54D14*
X307975Y815975D02*
X177800Y815975D01*
X666750Y314325D02*
G54D16*
D03*
G54D14*
X663575Y257175D02*
X663575Y304800D01*
X666750Y314325D01*
G54D17*
X749300Y79375D02*
X728662Y79375D01*
X728662Y180975D01*
X755650Y180975D01*
G54D14*
X198350Y238375D02*
X198350Y180975D01*
X195154Y180975D01*
X196850Y180975D01*
G54D17*
X679450Y28575D02*
X679450Y3175D01*
X298350Y328375D02*
G54D19*
D03*
X558350Y328375D02*
G54D19*
D03*
X260350Y180975D02*
G54D11*
D03*
X260350Y155575D02*
G54D11*
D03*
X260350Y130175D02*
G54D11*
D03*
X260350Y104775D02*
G54D11*
D03*
X336550Y180975D02*
G54D11*
D03*
X336550Y155575D02*
G54D11*
D03*
X336550Y130175D02*
G54D11*
D03*
X336550Y104775D02*
G54D11*
D03*
X260350Y79375D02*
G54D11*
D03*
X336550Y79375D02*
G54D11*
D03*
X260350Y53975D02*
G54D11*
D03*
X260350Y28575D02*
G54D11*
D03*
X336550Y53975D02*
G54D11*
D03*
X336550Y28575D02*
G54D11*
D03*
X172300Y305275D02*
G54D16*
D03*
G54D14*
X172300Y305275D02*
X228125Y305275D01*
X228215Y304801D01*
X228289Y260298D01*
X131025Y330675D02*
G54D16*
D03*
G54D14*
X243413Y260270D02*
X243515Y330200D01*
X131500Y330200D01*
X131025Y330675D01*
X764752Y226318D02*
G54D20*
D03*
X688552Y226318D02*
G54D20*
D03*
G54D14*
X633399Y237600D02*
X633399Y218288D01*
X688570Y219832D01*
X688552Y226318D01*
X688975Y226741D01*
X688552Y226318D01*
G54D14*
X213181Y234722D02*
X213249Y219075D01*
X240237Y219075D01*
X239712Y155575D01*
X260350Y155575D01*
G54D17*
X615950Y180975D02*
X628650Y180975D01*
X650875Y161925D01*
X650875Y111125D01*
X657225Y104775D01*
X679450Y104775D01*
G54D17*
X260350Y28575D02*
X260350Y6350D01*
G54D14*
X476250Y130175D02*
X476250Y104775D01*
G54D14*
X476250Y79375D02*
X476250Y53975D01*
G54D14*
X400050Y180975D02*
X439738Y180975D01*
X439738Y25400D01*
X473075Y25400D01*
X476250Y28575D01*
G54D14*
X400050Y155575D02*
X400050Y130175D01*
G54D14*
X400050Y104775D02*
X400050Y79375D01*
G54D14*
X206375Y952500D02*
X206375Y920750D01*
X228600Y889000D01*
X288925Y889000D01*
X377825Y800100D01*
X377825Y263525D01*
G54D15*
X206375Y977900D02*
X193675Y965200D01*
X193675Y895350D01*
X212725Y876300D01*
X282575Y876300D01*
X361950Y796925D01*
X361950Y263525D01*
G54D15*
X180975Y977900D02*
X168275Y965200D01*
X168275Y898525D01*
X209550Y863600D01*
X282575Y863600D01*
X342900Y803275D01*
X342900Y403225D01*
X357208Y45939D02*
G54D21*
D03*
X374885Y28261D02*
G54D21*
D03*
X217508Y45939D02*
G54D21*
D03*
X235185Y28261D02*
G54D21*
D03*
X496908Y45939D02*
G54D21*
D03*
X514585Y28261D02*
G54D21*
D03*
G54D14*
X514585Y28261D02*
X514585Y9760D01*
X512762Y7938D01*
G54D14*
X374885Y28261D02*
X374650Y3175D01*
G54D14*
X235185Y28261D02*
X235185Y6585D01*
X280988Y4762D01*
M02*
