%FSLAX34Y34*%
%MOMM*%
%LNCOPPER_BOTTOM*%
G71*
G01*
%ADD10C, 2.00*%
%ADD11C, 1.60*%
%ADD12C, 0.30*%
%ADD13C, 1.00*%
%ADD14C, 1.50*%
%ADD15C, 1.00*%
%ADD16C, 2.00*%
%ADD17C, 2.00*%
%ADD18C, 2.00*%
%ADD19C, 1.80*%
%LPD*%
X206375Y977900D02*
G54D10*
D03*
X206375Y952500D02*
G54D10*
D03*
X180975Y977900D02*
G54D10*
D03*
X180975Y952500D02*
G54D10*
D03*
X155575Y977900D02*
G54D10*
D03*
G36*
X165575Y962500D02*
X165575Y942500D01*
X145575Y942500D01*
X145575Y962500D01*
X165575Y962500D01*
G37*
G36*
X343375Y987900D02*
X343375Y967900D01*
X323375Y967900D01*
X323375Y987900D01*
X343375Y987900D01*
G37*
X333375Y952500D02*
G54D10*
D03*
X307975Y977900D02*
G54D10*
D03*
X307975Y952500D02*
G54D10*
D03*
X282575Y977900D02*
G54D10*
D03*
X282575Y952500D02*
G54D10*
D03*
X257175Y977900D02*
G54D10*
D03*
X257175Y952500D02*
G54D10*
D03*
X231775Y977900D02*
G54D10*
D03*
X231775Y952500D02*
G54D10*
D03*
X460375Y977900D02*
G54D10*
D03*
X460375Y952500D02*
G54D10*
D03*
X434975Y977900D02*
G54D10*
D03*
X434975Y952500D02*
G54D10*
D03*
X409575Y977900D02*
G54D10*
D03*
X409575Y952500D02*
G54D10*
D03*
X384175Y977900D02*
G54D10*
D03*
X384175Y952500D02*
G54D10*
D03*
G36*
X368775Y987900D02*
X368775Y967900D01*
X348775Y967900D01*
X348775Y987900D01*
X368775Y987900D01*
G37*
G36*
X368775Y962500D02*
X368775Y942500D01*
X348775Y942500D01*
X348775Y962500D01*
X368775Y962500D01*
G37*
X587375Y977900D02*
G54D10*
D03*
X587375Y952500D02*
G54D10*
D03*
X561975Y977900D02*
G54D10*
D03*
X561975Y952500D02*
G54D10*
D03*
X536575Y977900D02*
G54D10*
D03*
X536575Y952500D02*
G54D10*
D03*
X511175Y977900D02*
G54D10*
D03*
X511175Y952500D02*
G54D10*
D03*
X485775Y977900D02*
G54D10*
D03*
X485775Y952500D02*
G54D10*
D03*
G36*
X724375Y987900D02*
X724375Y967900D01*
X704375Y967900D01*
X704375Y987900D01*
X724375Y987900D01*
G37*
X714375Y952500D02*
G54D10*
D03*
X688975Y977900D02*
G54D10*
D03*
X688975Y952500D02*
G54D10*
D03*
X663575Y977900D02*
G54D10*
D03*
X663575Y952500D02*
G54D10*
D03*
X638175Y977900D02*
G54D10*
D03*
X638175Y952500D02*
G54D10*
D03*
X612775Y977900D02*
G54D10*
D03*
X612775Y952500D02*
G54D10*
D03*
X120650Y180975D02*
G54D11*
D03*
X120650Y155575D02*
G54D11*
D03*
X120650Y130175D02*
G54D11*
D03*
X120650Y104775D02*
G54D11*
D03*
X196850Y180975D02*
G54D11*
D03*
X196850Y155575D02*
G54D11*
D03*
X196850Y130175D02*
G54D11*
D03*
X196850Y104775D02*
G54D11*
D03*
X120650Y79375D02*
G54D11*
D03*
X196850Y79375D02*
G54D11*
D03*
X120650Y53975D02*
G54D11*
D03*
X120650Y28575D02*
G54D11*
D03*
X196850Y53975D02*
G54D11*
D03*
X196850Y28575D02*
G54D11*
D03*
X400050Y180975D02*
G54D11*
D03*
X400050Y155575D02*
G54D11*
D03*
X400050Y130175D02*
G54D11*
D03*
X400050Y104775D02*
G54D11*
D03*
X476250Y180975D02*
G54D11*
D03*
X476250Y155575D02*
G54D11*
D03*
X476250Y130175D02*
G54D11*
D03*
X476250Y104775D02*
G54D11*
D03*
X400050Y79375D02*
G54D11*
D03*
X476250Y79375D02*
G54D11*
D03*
X400050Y53975D02*
G54D11*
D03*
X400050Y28575D02*
G54D11*
D03*
X476250Y53975D02*
G54D11*
D03*
X476250Y28575D02*
G54D11*
D03*
X539750Y180975D02*
G54D11*
D03*
X539750Y155575D02*
G54D11*
D03*
X539750Y130175D02*
G54D11*
D03*
X539750Y104775D02*
G54D11*
D03*
X615950Y180975D02*
G54D11*
D03*
X615950Y155575D02*
G54D11*
D03*
X615950Y130175D02*
G54D11*
D03*
X615950Y104775D02*
G54D11*
D03*
X539750Y79375D02*
G54D11*
D03*
X615950Y79375D02*
G54D11*
D03*
X539750Y53975D02*
G54D11*
D03*
X539750Y28575D02*
G54D11*
D03*
X615950Y53975D02*
G54D11*
D03*
X615950Y28575D02*
G54D11*
D03*
X679450Y180975D02*
G54D11*
D03*
X679450Y155575D02*
G54D11*
D03*
X679450Y130175D02*
G54D11*
D03*
X679450Y104775D02*
G54D11*
D03*
X755650Y180975D02*
G54D11*
D03*
X755650Y155575D02*
G54D11*
D03*
X755650Y130175D02*
G54D11*
D03*
X755650Y104775D02*
G54D11*
D03*
X679450Y79375D02*
G54D11*
D03*
X755650Y79375D02*
G54D11*
D03*
X679450Y53975D02*
G54D11*
D03*
X679450Y28575D02*
G54D11*
D03*
X755650Y53975D02*
G54D11*
D03*
X755650Y28575D02*
G54D11*
D03*
G54D12*
X536575Y952500D02*
X536395Y507675D01*
X393700Y365125D01*
G54D12*
X536575Y977900D02*
X549275Y965200D01*
X549275Y508000D01*
X454025Y412750D01*
X455100Y400750D01*
G54D13*
X511175Y952500D02*
X511175Y511175D01*
X430150Y433075D01*
G54D12*
X511175Y977900D02*
X523875Y965200D01*
X523875Y508000D01*
X419100Y403225D01*
X406400Y403225D01*
G54D12*
X282575Y952500D02*
X282575Y863600D01*
X263525Y863600D01*
X263525Y400050D01*
X285750Y400050D01*
X285750Y360675D01*
G54D12*
X282575Y977900D02*
X269875Y965200D01*
X269875Y869950D01*
X257175Y869950D01*
X257175Y679450D01*
X257442Y378774D01*
X273050Y378775D01*
G54D13*
X460375Y952500D02*
X460375Y495300D01*
X410650Y448375D01*
G54D13*
X231775Y952500D02*
X231775Y825500D01*
X222250Y812800D01*
X222250Y762000D01*
X222250Y762000D02*
G54D14*
D03*
G54D12*
X231775Y977900D02*
X219075Y965200D01*
X219075Y825500D01*
X209550Y815975D01*
X209550Y790575D01*
X196850Y777875D01*
X196850Y762000D01*
X196850Y762000D02*
G54D14*
D03*
X285750Y360675D02*
G54D14*
D03*
X273050Y378775D02*
G54D14*
D03*
X393700Y365125D02*
G54D14*
D03*
X403350Y401475D02*
G54D14*
D03*
X410650Y448375D02*
G54D14*
D03*
X430150Y433075D02*
G54D14*
D03*
X455100Y400750D02*
G54D14*
D03*
X480500Y378525D02*
G54D14*
D03*
G54D12*
X257175Y977900D02*
X244475Y965200D01*
X244327Y308456D01*
X303350Y308375D01*
G54D12*
X257175Y952500D02*
X257175Y876300D01*
X250825Y876300D01*
X250825Y343375D01*
X323850Y343375D01*
X318350Y343375D02*
G54D14*
D03*
X303350Y308375D02*
G54D14*
D03*
X342900Y403225D02*
G54D14*
D03*
G54D13*
X342900Y403225D02*
X342939Y306564D01*
X453158Y306742D01*
X453350Y306550D01*
X453350Y306550D02*
G54D14*
D03*
G54D13*
X638175Y952500D02*
X638175Y892175D01*
X695325Y835025D01*
X730250Y796438D01*
X729885Y796524D01*
X730176Y796630D01*
X730250Y169862D01*
X742950Y155575D01*
X755650Y155575D01*
X498350Y347825D02*
G54D14*
D03*
G54D12*
X688975Y977900D02*
X714375Y952500D01*
G54D13*
X485775Y952500D02*
X485775Y806450D01*
X485775Y806450D02*
G54D14*
D03*
X520575Y449425D02*
G54D14*
D03*
G54D13*
X498350Y347825D02*
X498350Y424025D01*
X520575Y449425D01*
G54D12*
X638175Y977900D02*
X650875Y965200D01*
X650875Y911225D01*
X716661Y845665D01*
X716661Y845665D02*
G54D14*
D03*
G54D12*
X561975Y977900D02*
X574675Y965200D01*
X574675Y930275D01*
X717550Y787400D01*
X717550Y200025D01*
X685324Y199679D01*
X685320Y199680D02*
G54D15*
D03*
G54D16*
X714375Y952500D02*
X714375Y908050D01*
X713900Y882100D01*
X713900Y882100D02*
G54D14*
D03*
G54D13*
X180975Y952500D02*
X180975Y847725D01*
X196850Y847725D01*
X196850Y803275D01*
X171450Y777875D01*
X171450Y276225D01*
X146050Y276225D01*
X146050Y155575D01*
X120650Y155575D01*
G54D12*
X460375Y977900D02*
X447675Y965200D01*
X447675Y815975D01*
X307975Y815975D01*
X307975Y815975D02*
G54D14*
D03*
X177800Y815975D02*
G54D14*
D03*
G54D13*
X120650Y180975D02*
X130175Y180975D01*
X131025Y330675D01*
X133350Y815975D01*
X177800Y815975D01*
X666750Y314325D02*
G54D14*
D03*
G54D16*
X333375Y977900D02*
X358775Y977900D01*
X358775Y952500D01*
X358775Y908050D01*
X298350Y328375D02*
G54D17*
D03*
X558350Y328375D02*
G54D17*
D03*
X260350Y180975D02*
G54D11*
D03*
X260350Y155575D02*
G54D11*
D03*
X260350Y130175D02*
G54D11*
D03*
X260350Y104775D02*
G54D11*
D03*
X336550Y180975D02*
G54D11*
D03*
X336550Y155575D02*
G54D11*
D03*
X336550Y130175D02*
G54D11*
D03*
X336550Y104775D02*
G54D11*
D03*
X260350Y79375D02*
G54D11*
D03*
X336550Y79375D02*
G54D11*
D03*
X260350Y53975D02*
G54D11*
D03*
X260350Y28575D02*
G54D11*
D03*
X336550Y53975D02*
G54D11*
D03*
X336550Y28575D02*
G54D11*
D03*
X172300Y305275D02*
G54D14*
D03*
X131025Y330675D02*
G54D14*
D03*
G54D16*
X222250Y3175D02*
X585788Y4762D01*
X585788Y180975D01*
X615950Y180975D01*
G54D13*
X755650Y130175D02*
X774700Y130175D01*
X774700Y28575D01*
X755650Y28575D01*
G54D13*
X679450Y180975D02*
X720725Y180975D01*
X742950Y155575D01*
X755650Y155575D01*
G54D13*
X679450Y155575D02*
X676275Y155575D01*
X733425Y130175D01*
X733425Y53975D01*
X676275Y53975D01*
X679450Y53975D01*
G54D13*
X755650Y104775D02*
X733425Y104775D01*
X733425Y53975D01*
X679450Y53975D01*
G54D13*
X755650Y28575D02*
X742950Y3175D01*
X633412Y3175D01*
X633412Y203200D01*
X539750Y203200D01*
X539750Y180975D01*
X764752Y226318D02*
G54D18*
D03*
X688552Y226318D02*
G54D18*
D03*
G54D16*
X679450Y28575D02*
X654285Y28261D01*
X654050Y325438D01*
G54D16*
X476250Y180975D02*
X439738Y180975D01*
X439738Y6350D01*
G54D13*
X539750Y130175D02*
X501650Y130175D01*
X501650Y212725D01*
X290512Y211138D01*
X260350Y180975D01*
G54D13*
X539750Y155575D02*
X515938Y155575D01*
X515938Y234950D01*
X165100Y234950D01*
X165100Y130175D01*
X120650Y130175D01*
G54D13*
X336550Y180975D02*
X357188Y180975D01*
X357188Y4762D01*
G54D12*
X480500Y378525D02*
X480500Y426525D01*
X561975Y508000D01*
X561975Y952500D01*
X357208Y45939D02*
G54D19*
D03*
X374885Y28261D02*
G54D19*
D03*
X217508Y45939D02*
G54D19*
D03*
X235185Y28261D02*
G54D19*
D03*
X496908Y45939D02*
G54D19*
D03*
X514585Y28261D02*
G54D19*
D03*
G54D13*
X496908Y45939D02*
X496908Y7917D01*
X500062Y6350D01*
G54D13*
X196850Y180975D02*
X200025Y180975D01*
X217488Y180975D01*
X217488Y4762D01*
X222250Y3175D01*
G36*
X292100Y927100D02*
X438150Y927100D01*
X438150Y831850D01*
X311150Y831850D01*
X304800Y838200D01*
X285750Y838200D01*
X285750Y850900D01*
X292100Y850900D01*
X292100Y927100D01*
G37*
G54D12*
X292100Y927100D02*
X438150Y927100D01*
X438150Y831850D01*
X311150Y831850D01*
X304800Y838200D01*
X285750Y838200D01*
X285750Y850900D01*
X292100Y850900D01*
X292100Y927100D01*
G36*
X444500Y800100D02*
X444500Y508000D01*
X393700Y457200D01*
X393700Y431800D01*
X412750Y431800D01*
X412750Y419100D01*
X387350Y419100D01*
X387350Y387350D01*
X400050Y387350D01*
X400050Y381000D01*
X387350Y381000D01*
X381000Y374650D01*
X381000Y349250D01*
X406400Y349250D01*
X406400Y355600D01*
X412750Y361950D01*
X412750Y368300D01*
X438150Y393700D01*
X482600Y349250D01*
X482600Y330200D01*
X514350Y330200D01*
X514350Y419100D01*
X546100Y450850D01*
X533400Y463550D01*
X577850Y508000D01*
X577850Y908050D01*
X704850Y781050D01*
X704850Y247650D01*
X647700Y247650D01*
X647700Y215900D01*
X533400Y215900D01*
X533400Y247650D01*
X165100Y247650D01*
X165100Y260350D01*
X190500Y260350D01*
X190500Y736600D01*
X234950Y736600D01*
X234950Y292100D01*
X317500Y292100D01*
X317500Y323850D01*
X323850Y330200D01*
X330200Y330200D01*
X330200Y292100D01*
X469900Y292100D01*
X469900Y323850D01*
X355600Y323850D01*
X355600Y419100D01*
X330200Y419100D01*
X330200Y361950D01*
X304800Y361950D01*
X304800Y374650D01*
X298450Y374650D01*
X298450Y412750D01*
X273050Y412750D01*
X273050Y800100D01*
X444500Y800100D01*
G37*
G54D12*
X444500Y800100D02*
X444500Y508000D01*
X393700Y457200D01*
X393700Y431800D01*
X412750Y431800D01*
X412750Y419100D01*
X387350Y419100D01*
X387350Y387350D01*
X400050Y387350D01*
X400050Y381000D01*
X387350Y381000D01*
X381000Y374650D01*
X381000Y349250D01*
X406400Y349250D01*
X406400Y355600D01*
X412750Y361950D01*
X412750Y368300D01*
X438150Y393700D01*
X482600Y349250D01*
X482600Y330200D01*
X514350Y330200D01*
X514350Y419100D01*
X546100Y450850D01*
X533400Y463550D01*
X577850Y508000D01*
X577850Y908050D01*
X704850Y781050D01*
X704850Y247650D01*
X647700Y247650D01*
X647700Y215900D01*
X533400Y215900D01*
X533400Y247650D01*
X165100Y247650D01*
X165100Y260350D01*
X190500Y260350D01*
X190500Y736600D01*
X234950Y736600D01*
X234950Y292100D01*
X317500Y292100D01*
X317500Y323850D01*
X323850Y330200D01*
X330200Y330200D01*
X330200Y292100D01*
X469900Y292100D01*
X469900Y323850D01*
X355600Y323850D01*
X355600Y419100D01*
X330200Y419100D01*
X330200Y361950D01*
X304800Y361950D01*
X304800Y374650D01*
X298450Y374650D01*
X298450Y412750D01*
X273050Y412750D01*
X273050Y800100D01*
X444500Y800100D01*
G54D16*
X279400Y800100D02*
X279400Y844550D01*
X292100Y844550D01*
M02*
