; Drill file
; Format: 2.4 (00.0000)
M48
INCH
T01C0.0236
T02C0.0315
T03C0.0591
%
G05
G90
T01
X004750Y001130
X004750Y002120
X004750Y003120
X004750Y004120
X004750Y005120
X004750Y006130
X004750Y007130
X007750Y007130
X007750Y006130
X007750Y005120
X007750Y004120
X007750Y003120
X007750Y002120
X008560Y001810
X009260Y001110
X010250Y001130
X010250Y002120
X010250Y003120
X010250Y004120
X010250Y005120
X010250Y006130
X010250Y007130
X013250Y007130
X013250Y006130
X013250Y005120
X013250Y004120
X013250Y003120
X013250Y002120
X014060Y001810
X014760Y001110
X015750Y001130
X015750Y002120
X015750Y003120
X015750Y004120
X015750Y005120
X015750Y006130
X015750Y007130
X018750Y007130
X018750Y006130
X018750Y005120
X018750Y004120
X018750Y003120
X018750Y002120
X019560Y001810
X020260Y001110
X021250Y001130
X021250Y002120
X021250Y003120
X021250Y004120
X021250Y005120
X021250Y006130
X021250Y007130
X024250Y007130
X024250Y006130
X024250Y005120
X024250Y004120
X024250Y003120
X024250Y002120
X024250Y001130
X026750Y001130
X026750Y002120
X026750Y003120
X026750Y004120
X026750Y005120
X026750Y006130
X026750Y007130
X026980Y007860
X027110Y008910
X030110Y008910
X029750Y007130
X029750Y006130
X029750Y005120
X029750Y004120
X029750Y003120
X029750Y002120
X029750Y001130
X018750Y001130
X013250Y001130
X007750Y001130
X006780Y012020
X005160Y013020
X010750Y014910
X011250Y014200
X012530Y013520
X011940Y012140
X013500Y015870
X015880Y015810
X015500Y014380
X017920Y015780
X018920Y014900
X019620Y013690
X017850Y012070
X016940Y017050
X016170Y017650
X020500Y017690
X026250Y012380
X019130Y031750
X012120Y032120
X008750Y030000
X007750Y030000
X007000Y032120
X028210Y033290
X028110Y034730
T02
X006130Y037500
X007130Y037500
X008120Y037500
X008120Y038500
X007130Y038500
X006130Y038500
X009120Y038500
X010120Y038500
X011130Y038500
X012120Y038500
X013120Y038500
X013120Y037500
X012120Y037500
X011130Y037500
X010120Y037500
X009120Y037500
X014130Y037500
X015120Y037500
X016130Y037500
X017120Y037500
X018120Y037500
X018120Y038500
X017120Y038500
X016130Y038500
X015120Y038500
X014130Y038500
X019130Y038500
X020130Y038500
X021120Y038500
X022120Y038500
X023120Y038500
X023120Y037500
X022120Y037500
X021120Y037500
X020130Y037500
X019130Y037500
X024130Y037500
X025130Y037500
X026120Y037500
X027120Y037500
X028120Y037500
X028120Y038500
X027120Y038500
X026120Y038500
X025130Y038500
X024130Y038500
T03
X011750Y012930
X021980Y012930
M30
